<?xml version="1.0" standalone="no"?>
<!DOCTYPE svg PUBLIC "-//W3C//DTD SVG 20010904//EN"
 "http://www.w3.org/TR/2001/REC-SVG-20010904/DTD/svg10.dtd">
<svg version="1.0" xmlns="http://www.w3.org/2000/svg"
 width="280.000000pt" height="348.000000pt" viewBox="0 0 280.000000 348.000000"
 preserveAspectRatio="xMidYMid meet">

<g transform="translate(0.000000,348.000000) scale(0.100000,-0.100000)"
fill="#000000" stroke="none">
<path d="M520 2073 c0 -12 82 -43 110 -43 l25 1 -30 24 c-29 24 -105 36 -105
18z"/>
<path d="M395 1995 c-32 -29 -43 -44 -30 -41 51 12 180 49 184 52 2 2 -2 10
-9 19 -7 9 -29 15 -54 15 -35 0 -49 -7 -91 -45z"/>
<path d="M601 1967 c2 -2 19 -11 36 -20 32 -15 32 -15 23 4 -7 11 -21 19 -37
19 -14 0 -24 -2 -22 -3z"/>
<path d="M700 1966 c0 -2 7 -9 15 -16 12 -10 15 -10 15 4 0 9 -7 16 -15 16 -8
0 -15 -2 -15 -4z"/>
<path d="M434 1933 l-91 -25 -31 -64 c-38 -76 -38 -78 -12 -64 19 10 20 8 20
-52 0 -61 2 -64 40 -95 21 -18 41 -33 43 -33 3 0 -1 32 -9 71 l-14 72 68 96
c72 102 85 121 80 120 -2 0 -44 -12 -94 -26z"/>
<path d="M712 1889 c11 -17 10 -22 -6 -35 -11 -8 -28 -14 -38 -14 -10 0 -18
-4 -18 -10 0 -12 17 -12 45 -1 11 5 28 4 38 -1 12 -6 17 -5 17 6 0 8 -5 18
-10 21 -7 4 -7 12 0 25 14 27 13 30 -15 30 -23 0 -24 -2 -13 -21z"/>
<path d="M481 1802 c-22 -38 -41 -72 -41 -76 0 -4 45 -57 100 -117 55 -61 100
-117 100 -125 0 -8 4 -14 10 -14 14 0 42 59 34 73 -4 7 -43 51 -87 99 l-79 87
7 71 c4 38 5 70 2 70 -3 0 -23 -31 -46 -68z"/>
<path d="M1000 1760 l0 -90 60 0 c47 0 60 3 60 15 0 11 -11 15 -40 15 l-40 0
0 75 c0 68 -2 75 -20 75 -19 0 -20 -7 -20 -90z"/>
<path d="M1190 1760 l0 -90 60 0 c47 0 60 3 60 15 0 11 -11 15 -40 15 -36 0
-40 3 -40 25 0 23 4 25 40 25 29 0 40 4 40 15 0 11 -11 15 -40 15 -33 0 -40 3
-40 20 0 17 7 20 40 20 29 0 40 4 40 15 0 12 -13 15 -60 15 l-60 0 0 -90z"/>
<path d="M1409 1824 c-55 -59 -14 -154 67 -154 44 0 94 45 94 85 0 33 -24 81
-45 89 -39 15 -91 6 -116 -20z m105 -20 c34 -34 6 -104 -41 -104 -21 0 -53 38
-53 62 0 49 61 76 94 42z"/>
<path d="M1665 1825 c-32 -31 -34 -96 -5 -125 39 -39 102 -38 140 2 42 46 10
68 -34 23 -14 -14 -32 -25 -41 -25 -21 0 -55 36 -55 60 0 11 9 29 20 40 11 11
29 20 40 20 11 0 29 -9 40 -20 21 -21 50 -27 50 -10 0 6 -11 22 -25 35 -18 19
-35 25 -65 25 -30 0 -47 -6 -65 -25z"/>
<path d="M1915 1825 c-32 -31 -34 -96 -5 -125 61 -61 160 -23 160 60 0 56 -34
90 -90 90 -30 0 -47 -6 -65 -25z m106 -26 c24 -24 20 -65 -8 -86 -25 -19 -41
-16 -69 12 -18 19 -23 31 -19 48 15 48 61 61 96 26z"/>
<path d="M2150 1760 l0 -90 44 0 c63 0 106 37 106 91 0 59 -34 89 -100 89
l-50 0 0 -90z m91 50 c28 -15 26 -74 -3 -94 -45 -32 -58 -22 -58 44 0 54 2 60
21 60 11 0 29 -5 40 -10z"/>
<path d="M2380 1760 l0 -90 60 0 c47 0 60 3 60 15 0 11 -12 15 -45 15 -41 0
-45 2 -45 25 0 23 4 25 45 25 33 0 45 4 45 15 0 11 -12 15 -45 15 -38 0 -45 3
-45 20 0 17 7 20 45 20 33 0 45 4 45 15 0 12 -13 15 -60 15 l-60 0 0 -90z"/>
<path d="M570 1795 c1 -40 13 -60 91 -143 l65 -71 17 28 16 27 -95 94 c-90 90
-94 93 -94 65z"/>
<path d="M686 1785 c4 -8 7 -15 9 -15 1 0 8 7 15 15 10 13 9 15 -8 15 -15 0
-20 -5 -16 -15z"/>
<path d="M455 1580 c4 -25 15 -56 26 -70 11 -14 32 -44 48 -68 l29 -42 16 25
c10 14 14 34 11 43 -3 9 -35 49 -71 87 l-65 70 6 -45z"/>
</g>
</svg>
