<?xml version="1.0" standalone="no"?>
<!DOCTYPE svg PUBLIC "-//W3C//DTD SVG 20010904//EN"
 "http://www.w3.org/TR/2001/REC-SVG-20010904/DTD/svg10.dtd">
<svg version="1.0" xmlns="http://www.w3.org/2000/svg"
 width="140.000000pt" height="140.000000pt" viewBox="0 0 140.000000 140.000000"
 preserveAspectRatio="xMidYMid meet">

<g transform="translate(0.000000,140.000000) scale(0.100000,-0.100000)"
fill="#000000" stroke="none">
<path d="M726 1241 l-39 -6 79 -38 c61 -30 88 -38 121 -35 l42 3 -51 43 c-52
44 -65 47 -152 33z"/>
<path d="M492 1107 c-46 -39 -79 -73 -75 -74 4 -1 86 19 181 46 l174 48 -32
26 c-28 24 -40 27 -98 26 l-67 0 -83 -72z"/>
<path d="M846 1055 c10 -8 25 -15 32 -15 7 0 24 -7 37 -16 27 -18 33 -7 15 27
-8 15 -21 19 -57 19 -43 0 -45 -1 -27 -15z"/>
<path d="M1022 1040 c7 -11 16 -20 20 -20 5 0 8 9 8 20 0 13 -7 20 -20 20 -18
0 -19 -2 -8 -20z"/>
<path d="M552 1000 c-73 -21 -135 -39 -136 -41 -7 -8 -124 -229 -121 -229 1 0
19 7 39 15 l36 15 0 -99 0 -99 58 -48 c31 -26 64 -54 73 -61 14 -12 13 3 -7
109 -22 113 -22 124 -8 147 9 13 65 93 125 178 74 105 103 153 91 152 -9 0
-77 -18 -150 -39z"/>
<path d="M1024 935 c9 -13 16 -30 16 -38 0 -19 -88 -59 -112 -51 -18 5 -18 4
-8 -16 6 -12 17 -19 25 -16 62 23 95 28 110 16 24 -20 30 -4 15 41 -12 37 -12
42 3 51 33 18 20 38 -24 38 l-41 0 16 -25z"/>
<path d="M642 790 c-39 -65 -72 -123 -72 -129 0 -7 70 -89 156 -184 94 -104
164 -190 175 -216 l20 -45 19 31 c10 17 26 45 35 62 l16 32 -118 130 c-65 72
-130 145 -145 163 l-27 32 9 119 c5 66 8 120 7 121 -1 2 -35 -51 -75 -116z"/>
<path d="M784 795 c3 -16 8 -48 12 -70 6 -38 44 -84 229 -283 l22 -24 27 48
27 48 -58 55 c-32 29 -105 99 -161 155 -92 90 -103 98 -98 71z"/>
<path d="M970 771 c0 -5 7 -14 16 -21 13 -11 19 -10 37 8 l21 22 -37 0 c-20 0
-37 -4 -37 -9z"/>
<path d="M583 480 c3 -14 11 -54 18 -90 10 -56 21 -75 69 -135 32 -38 65 -85
74 -103 20 -39 26 -36 59 23 l25 44 -120 138 c-66 76 -123 140 -126 143 -3 3
-2 -6 1 -20z"/>
</g>
</svg>
